<svg xmlns="http://www.w3.org/2000/svg" xmlns:xlink="http://www.w3.org/1999/xlink" width="113" height="47" viewBox="0 0 113 47">
  <defs>
    <filter id="합치기_1" x="0" y="0" width="113" height="47" filterUnits="userSpaceOnUse">
      <feOffset dy="3" input="SourceAlpha"/>
      <feGaussianBlur stdDeviation="3" result="blur"/>
      <feFlood flood-color="#7e878f" flood-opacity="0.2"/>
      <feComposite operator="in" in2="blur"/>
      <feComposite in="SourceGraphic"/>
    </filter>
  </defs>
  <g id="그룹_255" data-name="그룹 255" transform="translate(-1526 -1402)">
    <g id="그룹_260" data-name="그룹 260" transform="translate(208)">
      <g transform="matrix(1, 0, 0, 1, 1318, 1402)" filter="url(#합치기_1)">
        <g id="합치기_1-2" data-name="합치기 1" transform="translate(1537 1499)" fill="#fff">
          <path d="M -1479.999633789062 -1464.759643554688 L -1483.997924804688 -1469.3291015625 L -1484.147338867188 -1469.499877929688 L -1484.374267578125 -1469.499877929688 L -1515.999633789062 -1469.499877929688 C -1519.071533203125 -1469.499877929688 -1521.95947265625 -1470.696166992188 -1524.131713867188 -1472.868408203125 C -1526.303955078125 -1475.04052734375 -1527.500244140625 -1477.928588867188 -1527.500244140625 -1481.00048828125 C -1527.500244140625 -1484.071899414062 -1526.303955078125 -1486.959716796875 -1524.131713867188 -1489.131713867188 C -1521.95947265625 -1491.303833007812 -1519.071411132812 -1492.500122070312 -1515.999633789062 -1492.500122070312 L -1445.00048828125 -1492.500122070312 C -1441.928588867188 -1492.500122070312 -1439.04052734375 -1491.303833007812 -1436.868286132812 -1489.131713867188 C -1434.696166992188 -1486.959716796875 -1433.499877929688 -1484.071899414062 -1433.499877929688 -1481.00048828125 C -1433.499877929688 -1477.928588867188 -1434.696166992188 -1475.04052734375 -1436.868408203125 -1472.868408203125 C -1439.04052734375 -1470.696166992188 -1441.928588867188 -1469.499877929688 -1445.00048828125 -1469.499877929688 L -1475.625610351562 -1469.499877929688 L -1475.8525390625 -1469.499877929688 L -1476.001953125 -1469.3291015625 L -1479.999633789062 -1464.759643554688 Z" stroke="none"/>
          <path d="M -1479.999633789062 -1465.51904296875 L -1476.079467773438 -1469.999877929688 L -1445.00048828125 -1469.999877929688 C -1442.062133789062 -1469.999877929688 -1439.299682617188 -1471.144165039062 -1437.221923828125 -1473.221923828125 C -1435.144165039062 -1475.299682617188 -1433.999877929688 -1478.062133789062 -1433.999877929688 -1481.00048828125 C -1433.999877929688 -1487.065673828125 -1438.934692382812 -1492.000122070312 -1445.00048828125 -1492.000122070312 L -1515.999633789062 -1492.000122070312 C -1522.0654296875 -1492.000122070312 -1527.000244140625 -1487.065673828125 -1527.000244140625 -1481.00048828125 C -1527.000244140625 -1478.062133789062 -1525.85595703125 -1475.299682617188 -1523.778198242188 -1473.221923828125 C -1521.700439453125 -1471.144165039062 -1518.937866210938 -1469.999877929688 -1515.999633789062 -1469.999877929688 L -1483.920532226562 -1469.999877929688 L -1479.999633789062 -1465.51904296875 M -1479.999633789062 -1464.000366210938 L -1484.374267578125 -1468.999877929688 L -1515.999633789062 -1468.999877929688 C -1522.627197265625 -1468.999877929688 -1528.000244140625 -1474.372802734375 -1528.000244140625 -1481.00048828125 C -1528.000244140625 -1487.627197265625 -1522.627197265625 -1493.000122070312 -1515.999633789062 -1493.000122070312 L -1445.00048828125 -1493.000122070312 C -1438.372802734375 -1493.000122070312 -1432.999877929688 -1487.627197265625 -1432.999877929688 -1481.00048828125 C -1432.999877929688 -1474.372802734375 -1438.372802734375 -1468.999877929688 -1445.00048828125 -1468.999877929688 L -1475.625610351562 -1468.999877929688 L -1479.999633789062 -1464.000366210938 Z" stroke="none" fill="#eeeff1"/>
        </g>
      </g>
      <text id="배불리배불리" transform="translate(1374 1425)" fill="#74a0a7" font-size="13" font-family="NotoSansKR-Medium, Noto Sans KR" font-weight="500"><tspan x="-35.88" y="0">배불리배불리</tspan></text>
    </g>
  </g>
</svg>
