<svg xmlns="http://www.w3.org/2000/svg" xmlns:xlink="http://www.w3.org/1999/xlink" width="82" height="47" viewBox="0 0 82 47">
  <defs>
    <filter id="합치기_1" x="0" y="0" width="82" height="47" filterUnits="userSpaceOnUse">
      <feOffset dy="3" input="SourceAlpha"/>
      <feGaussianBlur stdDeviation="3" result="blur"/>
      <feFlood flood-color="#7e878f" flood-opacity="0.2"/>
      <feComposite operator="in" in2="blur"/>
      <feComposite in="SourceGraphic"/>
    </filter>
  </defs>
  <g id="그룹_256" data-name="그룹 256" transform="translate(-1318 -1402)">
    <g transform="matrix(1, 0, 0, 1, 1318, 1402)" filter="url(#합치기_1)">
      <g id="합치기_1-2" data-name="합치기 1" transform="translate(1537 1499)" fill="#fff">
        <path d="M -1495.999877929688 -1464.759643554688 L -1499.998168945312 -1469.3291015625 L -1500.147583007812 -1469.499877929688 L -1500.37451171875 -1469.499877929688 L -1515.999633789062 -1469.499877929688 C -1519.071533203125 -1469.499877929688 -1521.95947265625 -1470.696166992188 -1524.131713867188 -1472.868408203125 C -1526.303955078125 -1475.04052734375 -1527.500244140625 -1477.928588867188 -1527.500244140625 -1481.00048828125 C -1527.500244140625 -1484.071899414062 -1526.303955078125 -1486.959716796875 -1524.131713867188 -1489.131713867188 C -1521.95947265625 -1491.303833007812 -1519.071411132812 -1492.500122070312 -1515.999633789062 -1492.500122070312 L -1476 -1492.500122070312 C -1472.92822265625 -1492.500122070312 -1470.040405273438 -1491.303833007812 -1467.868408203125 -1489.131713867188 C -1465.696533203125 -1486.959716796875 -1464.500366210938 -1484.072021484375 -1464.500366210938 -1481.00048828125 C -1464.500366210938 -1477.928588867188 -1465.696533203125 -1475.04052734375 -1467.868408203125 -1472.868286132812 C -1470.040405273438 -1470.696166992188 -1472.92822265625 -1469.499877929688 -1476 -1469.499877929688 L -1491.625244140625 -1469.499877929688 L -1491.852172851562 -1469.499877929688 L -1492.001586914062 -1469.3291015625 L -1495.999877929688 -1464.759643554688 Z" stroke="none"/>
        <path d="M -1495.999877929688 -1465.518920898438 L -1492.078979492188 -1469.999877929688 L -1476 -1469.999877929688 C -1473.061767578125 -1469.999877929688 -1470.299560546875 -1471.144165039062 -1468.222045898438 -1473.221923828125 C -1466.14453125 -1475.299560546875 -1465.000366210938 -1478.062133789062 -1465.000366210938 -1481.00048828125 C -1465.000366210938 -1483.9384765625 -1466.14453125 -1486.70068359375 -1468.221923828125 -1488.778198242188 C -1470.299560546875 -1490.85595703125 -1473.061767578125 -1492.000122070312 -1476 -1492.000122070312 L -1515.999633789062 -1492.000122070312 C -1522.0654296875 -1492.000122070312 -1527.000244140625 -1487.065673828125 -1527.000244140625 -1481.00048828125 C -1527.000244140625 -1478.062133789062 -1525.85595703125 -1475.299682617188 -1523.778198242188 -1473.221923828125 C -1521.700439453125 -1471.144165039062 -1518.937866210938 -1469.999877929688 -1515.999633789062 -1469.999877929688 L -1499.920776367188 -1469.999877929688 L -1495.999877929688 -1465.518920898438 M -1495.999877929688 -1464.000366210938 L -1500.37451171875 -1468.999877929688 L -1515.999633789062 -1468.999877929688 C -1522.627197265625 -1468.999877929688 -1528.000244140625 -1474.372802734375 -1528.000244140625 -1481.00048828125 C -1528.000244140625 -1487.627197265625 -1522.627197265625 -1493.000122070312 -1515.999633789062 -1493.000122070312 L -1476 -1493.000122070312 C -1469.372436523438 -1493.000122070312 -1464.000366210938 -1487.627197265625 -1464.000366210938 -1481.00048828125 C -1464.000366210938 -1474.372802734375 -1469.372436523438 -1468.999877929688 -1476 -1468.999877929688 L -1491.625244140625 -1468.999877929688 L -1495.999877929688 -1464.000366210938 Z" stroke="none" fill="#eeeff1"/>
      </g>
    </g>
    <text id="스타또" transform="translate(1359 1425)" fill="#74a0a7" font-size="13" font-family="NotoSansKR-Medium, Noto Sans KR" font-weight="500"><tspan x="-17.94" y="0">스타또</tspan></text>
  </g>
</svg>
